<?xml version="1.0" standalone="no"?>
<!DOCTYPE svg PUBLIC "-//W3C//DTD SVG 20010904//EN"
 "http://www.w3.org/TR/2001/REC-SVG-20010904/DTD/svg10.dtd">
<svg version="1.0" xmlns="http://www.w3.org/2000/svg"
 width="524.000000pt" height="512.000000pt" viewBox="0 0 524.000000 512.000000"
 preserveAspectRatio="xMidYMid meet">

<g transform="translate(0.000000,512.000000) scale(0.100000,-0.100000)"
fill="#1772d0" stroke="none">
<path d="M2455 5114 c-182 -18 -253 -28 -340 -45 -1055 -209 -1875 -1039
-2070 -2093 -212 -1151 367 -2310 1410 -2821 307 -150 411 -174 478 -106 l32
31 3 272 3 271 -43 -7 c-24 -3 -89 -11 -145 -17 -244 -25 -478 49 -607 192
-28 31 -71 104 -115 192 -96 196 -135 242 -303 363 -24 17 -49 43 -57 57 -13
24 -12 29 4 46 23 27 90 36 157 22 136 -29 257 -120 355 -270 72 -109 144
-180 224 -220 47 -23 56 -31 37 -31 -55 0 -59 -49 -6 -71 39 -16 64 -2 61 35
-2 25 -1 26 40 19 104 -19 237 -4 355 39 44 16 52 23 52 44 0 35 46 169 75
218 13 23 37 55 54 73 l29 32 -46 6 c-639 88 -981 361 -1102 879 -47 203 -52
508 -11 676 28 110 115 287 185 374 41 51 53 73 47 85 -23 44 -42 174 -42 282
0 123 18 230 54 332 l23 62 80 -2 c136 -2 333 -78 547 -210 l90 -56 103 22
c182 39 284 52 470 58 217 7 381 -6 591 -49 l151 -30 90 55 c213 132 410 208
546 210 l80 2 23 -62 c37 -103 53 -204 53 -333 0 -113 -18 -238 -41 -281 -6
-12 6 -34 47 -85 103 -129 179 -310 204 -483 16 -106 8 -361 -15 -491 -78
-437 -308 -718 -706 -858 -91 -32 -278 -76 -369 -87 -96 -11 -96 -11 -56 -56
43 -46 90 -138 113 -216 14 -49 18 -129 22 -530 l6 -473 32 -31 c66 -67 170
-44 468 101 1136 554 1712 1855 1361 3076 -286 995 -1142 1732 -2172 1869
-116 16 -429 27 -509 19z"/>
<path d="M914 1418 c-9 -15 32 -49 51 -41 8 3 15 11 15 17 0 30 -51 49 -66 24z"/>
<path d="M1043 1325 c-7 -20 24 -55 48 -55 27 0 33 18 15 45 -18 28 -54 33
-63 10z"/>
<path d="M1135 1199 c-11 -17 4 -58 26 -69 28 -16 49 -5 49 23 0 40 -57 76
-75 46z"/>
<path d="M1267 1033 c-23 -22 3 -71 45 -86 23 -8 48 18 41 43 -9 35 -66 64
-86 43z"/>
<path d="M1668 899 c-26 -14 -22 -48 6 -60 31 -14 80 1 85 26 6 36 -52 57 -91
34z"/>
<path d="M1888 899 c-25 -14 -23 -56 3 -64 30 -10 67 2 80 27 10 18 8 24 -7
35 -21 15 -52 16 -76 2z"/>
</g>
</svg>
