<?xml version="1.0" standalone="no"?>
<!DOCTYPE svg PUBLIC "-//W3C//DTD SVG 20010904//EN"
 "http://www.w3.org/TR/2001/REC-SVG-20010904/DTD/svg10.dtd">
<svg version="1.0" xmlns="http://www.w3.org/2000/svg"
 width="406.000000pt" height="414.000000pt" viewBox="0 0 406.000000 414.000000"
 preserveAspectRatio="xMidYMid meet">

<g transform="translate(0.000000,414.000000) scale(0.100000,-0.100000)"
fill="#000000" stroke="none">
<path d="M290 4051 c-95 -20 -178 -84 -216 -166 l-24 -50 0 -1774 c0 -1289 3
-1784 11 -1811 19 -64 78 -131 144 -165 l59 -30 1770 0 1771 0 51 27 c57 30
118 93 142 147 16 33 17 182 17 1822 l0 1785 -30 59 c-33 64 -97 121 -163 146
-31 11 -327 14 -1767 15 -952 1 -1746 -1 -1765 -5z m797 -692 c72 -28 144 -94
174 -162 34 -75 34 -193 0 -261 -32 -64 -82 -113 -150 -145 -49 -23 -69 -26
-161 -26 -95 0 -110 3 -162 28 -69 34 -131 101 -152 164 -9 26 -16 78 -16 117
0 142 86 253 230 297 54 16 177 10 237 -12z m1825 -828 c218 -56 367 -197 445
-424 49 -141 53 -197 53 -825 l0 -582 -297 2 -298 3 -5 560 c-4 418 -9 570
-19 600 -33 103 -99 175 -183 200 -144 42 -288 -11 -369 -137 -56 -87 -59
-118 -59 -700 l0 -528 -299 0 -299 0 1 905 2 905 298 0 297 0 0 -127 0 -126
32 44 c81 113 205 198 338 233 83 22 270 20 362 -3z m-1662 -926 l0 -905 -300
0 -300 0 0 905 0 905 300 0 300 0 0 -905z"/>
</g>
</svg>
