<svg xmlns="http://www.w3.org/2000/svg" width="1456" height="898" viewBox="0 0 1456 898" font-family="DejaVu Sans, Arial, sans-serif">
<rect width="1456" height="898" fill="white"/>
<rect x="10" y="12" width="460" height="408" rx="14" fill="white" stroke="#000" stroke-width="0.8"/>
<line x1="240.0" y1="99.0" x2="240.0" y2="357.0" stroke="#000" stroke-width="0.8"/>
<text x="240.0" y="38" font-size="17" font-weight="bold" text-anchor="middle" fill="#000">🔄 Hypothesis Concat</text>
<text x="240.0" y="59" font-size="17" font-weight="bold" text-anchor="middle" fill="#000">Sampling</text>
<rect x="46" y="86" width="388" height="26" rx="9" fill="#cfcfcf" stroke="#000" stroke-width="0.8"/>
<text x="240.0" y="104.0" font-size="15" text-anchor="middle" fill="#000">Premise</text>
<rect x="46" y="116" width="388" height="52" rx="9" fill="white" stroke="#000" stroke-width="0.8"/>
<text x="240.0" y="137.0" font-size="14" text-anchor="middle" fill="#000">A girl wearing colored striped pants</text>
<text x="240.0" y="155.0" font-size="14" text-anchor="middle" fill="#000">brushing her teeth next to a white couch.</text>
<rect x="46" y="176" width="388" height="26" rx="9" fill="#cfcfcf" stroke="#000" stroke-width="0.8"/>
<text x="240.0" y="194.0" font-size="15" text-anchor="middle" fill="#000">Hypothesis</text>
<rect x="46" y="206" width="388" height="52" rx="9" fill="white" stroke="#000" stroke-width="0.8"/>
<text x="240.0" y="227.0" font-size="14" text-anchor="middle" fill="#000">A girl is brushing her teeth next to a white</text>
<text x="240.0" y="245.0" font-size="14" text-anchor="middle" fill="#000">couch while wearing colored striped pants</text>
<rect x="46" y="262" width="388" height="34" rx="9" fill="white" stroke="#000" stroke-width="0.8"/>
<text x="240.0" y="283.0" font-size="14" text-anchor="middle" fill="#000">A girl brushes her teeth.</text>
<rect x="46" y="300" width="388" height="34" rx="9" fill="white" stroke="#000" stroke-width="0.8"/>
<text x="240.0" y="321.0" font-size="12.5" text-anchor="middle" fill="#000">A girl is brushing her teeth and getting ready to sleep.</text>
<rect x="46" y="342" width="388" height="30" rx="9" fill="#cfcfcf" stroke="#000" stroke-width="0.8"/>
<text x="240.0" y="362.0" font-size="15" text-anchor="middle"><tspan fill="#000">Label:&#160;</tspan><tspan fill="#000" font-weight="bold">Neutral</tspan></text>
<text x="240.0" y="394" font-size="12.5" font-style="italic" text-anchor="middle" fill="#000">The model needs to consider each hypothesis</text>
<text x="240.0" y="410" font-size="12.5" font-style="italic" text-anchor="middle" fill="#000">sentence to determine the class.</text>
<rect x="498" y="12" width="460" height="408" rx="14" fill="white" stroke="#000" stroke-width="0.8"/>
<line x1="728.0" y1="99.0" x2="728.0" y2="305.0" stroke="#000" stroke-width="0.8"/>
<text x="728.0" y="38" font-size="17" font-weight="bold" text-anchor="middle" fill="#000">🚫 Misclassified</text>
<text x="728.0" y="59" font-size="17" font-weight="bold" text-anchor="middle" fill="#000">Sampling</text>
<rect x="534" y="86" width="388" height="26" rx="9" fill="#cfcfcf" stroke="#000" stroke-width="0.8"/>
<text x="728.0" y="104.0" font-size="15" text-anchor="middle" fill="#000">Premise</text>
<rect x="534" y="119" width="388" height="52" rx="9" fill="white" stroke="#000" stroke-width="0.8"/>
<text x="728.0" y="140.0" font-size="14" text-anchor="middle" fill="#000">A young man with pink hair and an older</text>
<text x="728.0" y="158.0" font-size="14" text-anchor="middle" fill="#000">man work to fix a vacuum cleaner.</text>
<rect x="534" y="197" width="388" height="26" rx="9" fill="#cfcfcf" stroke="#000" stroke-width="0.8"/>
<text x="728.0" y="215.0" font-size="15" text-anchor="middle" fill="#000">Hypothesis</text>
<rect x="534" y="230" width="388" height="34" rx="9" fill="white" stroke="#000" stroke-width="0.8"/>
<text x="728.0" y="251.0" font-size="14" text-anchor="middle" fill="#000">Two men are at a repair shop.</text>
<rect x="534" y="290" width="388" height="30" rx="9" fill="#cfcfcf" stroke="#000" stroke-width="0.8"/>
<text x="728.0" y="310.0" font-size="15" text-anchor="middle"><tspan fill="#000">Label:&#160;</tspan><tspan fill="#d11" font-weight="bold">Entailment</tspan></text>
<text x="728.0" y="348" font-size="12.5" font-style="italic" text-anchor="middle"><tspan fill="#000">Example&#160;of&#160;an&#160;unhelpful&#160;instance,</tspan></text>
<text x="728.0" y="364" font-size="12.5" font-style="italic" text-anchor="middle"><tspan fill="#000">where&#160;the&#160;model’s&#160;prediction&#160;of</tspan></text>
<text x="728.0" y="380" font-size="12.5" font-style="italic" text-anchor="middle"><tspan fill="#000" font-weight="bold">neutral</tspan><tspan fill="#000">&#160;is&#160;also&#160;valid.</tspan></text>
<rect x="986" y="12" width="460" height="408" rx="14" fill="white" stroke="#000" stroke-width="0.8"/>
<line x1="1216.0" y1="99.0" x2="1216.0" y2="321.0" stroke="#000" stroke-width="0.8"/>
<text x="1216.0" y="38" font-size="17" font-weight="bold" text-anchor="middle" fill="#000">🧠 Difficulty Score</text>
<text x="1216.0" y="59" font-size="17" font-weight="bold" text-anchor="middle" fill="#000">Sampling</text>
<rect x="1022" y="86" width="388" height="26" rx="9" fill="#cfcfcf" stroke="#000" stroke-width="0.8"/>
<text x="1216.0" y="104.0" font-size="15" text-anchor="middle" fill="#000">Premise</text>
<rect x="1022" y="116" width="388" height="34" rx="9" fill="white" stroke="#000" stroke-width="0.8"/>
<text x="1216.0" y="137.0" font-size="14" text-anchor="middle" fill="#000">A little girl is taking a picture outside.</text>
<rect x="1022" y="168" width="388" height="26" rx="9" fill="#cfcfcf" stroke="#000" stroke-width="0.8"/>
<text x="1216.0" y="186.0" font-size="15" text-anchor="middle" fill="#000">Hypothesis</text>
<rect x="1022" y="198" width="388" height="52" rx="9" fill="white" stroke="#000" stroke-width="0.8"/>
<text x="1216.0" y="219.0" font-size="14" text-anchor="middle" fill="#000">A young child is shooting a photograph</text>
<text x="1216.0" y="237.0" font-size="14" text-anchor="middle" fill="#000">outdoors of a ceiling fan.</text>
<rect x="1022" y="268" width="388" height="30" rx="9" fill="white" stroke="#000" stroke-width="0.8"/>
<text x="1216.0" y="288.0" font-size="14" text-anchor="middle"><tspan font-weight="bold">Difficulty score:</tspan> 7 out of 10</text>
<rect x="1022" y="306" width="388" height="30" rx="9" fill="#cfcfcf" stroke="#000" stroke-width="0.8"/>
<text x="1216.0" y="326.0" font-size="15" text-anchor="middle"><tspan fill="#000">Label:&#160;</tspan><tspan fill="#000" font-weight="bold">Contradiction</tspan></text>
<text x="1216.0" y="358" font-size="12.5" font-style="italic" text-anchor="middle" fill="#000">The difficulty score of 7/10 was the</text>
<text x="1216.0" y="374" font-size="12.5" font-style="italic" text-anchor="middle" fill="#000">highest score awarded by the LLM.</text>
<rect x="10" y="430" width="460" height="408" rx="14" fill="white" stroke="#000" stroke-width="0.8"/>
<line x1="240.0" y1="517.0" x2="240.0" y2="713.0" stroke="#000" stroke-width="0.8"/>
<text x="240.0" y="456" font-size="17" font-weight="bold" text-anchor="middle" fill="#000">❓ Uncertainty</text>
<text x="240.0" y="477" font-size="17" font-weight="bold" text-anchor="middle" fill="#000">Sampling</text>
<rect x="46" y="504" width="388" height="26" rx="9" fill="#cfcfcf" stroke="#000" stroke-width="0.8"/>
<text x="240.0" y="522.0" font-size="15" text-anchor="middle" fill="#000">Premise</text>
<rect x="46" y="536" width="388" height="52" rx="9" fill="white" stroke="#000" stroke-width="0.8"/>
<text x="240.0" y="557.0" font-size="14" text-anchor="middle" fill="#000">A person with a long ponytail walks along</text>
<text x="240.0" y="575.0" font-size="14" text-anchor="middle" fill="#000">a waterway under a tunnel.</text>
<rect x="46" y="610" width="388" height="26" rx="9" fill="#cfcfcf" stroke="#000" stroke-width="0.8"/>
<text x="240.0" y="628.0" font-size="15" text-anchor="middle" fill="#000">Hypothesis</text>
<rect x="46" y="642" width="388" height="34" rx="9" fill="white" stroke="#000" stroke-width="0.8"/>
<text x="240.0" y="663.0" font-size="14" text-anchor="middle" fill="#000">The long haired man was walking.</text>
<rect x="46" y="698" width="388" height="30" rx="9" fill="#cfcfcf" stroke="#000" stroke-width="0.8"/>
<text x="240.0" y="718.0" font-size="15" text-anchor="middle"><tspan fill="#000">Label:&#160;</tspan><tspan fill="#000" font-weight="bold">Neutral</tspan></text>
<text x="68" y="768" font-size="26">🤖</text>
<rect x="106" y="752" width="308" height="14" rx="7" fill="#e3e3e3" stroke="#000" stroke-width="0.8"/>
<rect x="228.35999999999999" y="752" width="93.24000000000004" height="14" rx="7" fill="#d04a4a"/>
<rect x="106" y="752" width="129.35999999999999" height="14" rx="7" fill="#5b7fd4"/>
<text x="240.0" y="786" font-size="11.5" font-style="italic" text-anchor="middle"><tspan fill="#000">Model&#160;incorrectly&#160;predicts&#160;</tspan><tspan fill="#d11" font-weight="bold">entailment</tspan><tspan fill="#000">,</tspan></text>
<text x="240.0" y="802" font-size="11.5" font-style="italic" text-anchor="middle"><tspan fill="#000">but&#160;with&#160;low&#160;confidence.</tspan></text>
<rect x="498" y="430" width="460" height="408" rx="14" fill="white" stroke="#000" stroke-width="0.8"/>
<line x1="728.0" y1="517.0" x2="728.0" y2="723.0" stroke="#000" stroke-width="0.8"/>
<text x="728.0" y="456" font-size="17" font-weight="bold" text-anchor="middle" fill="#000">😎️ Data Generation:</text>
<text x="728.0" y="477" font-size="17" font-weight="bold" text-anchor="middle" fill="#000">Short/Simple</text>
<rect x="534" y="504" width="388" height="26" rx="9" fill="#cfcfcf" stroke="#000" stroke-width="0.8"/>
<text x="728.0" y="522.0" font-size="15" text-anchor="middle" fill="#000">Premise</text>
<rect x="534" y="537" width="388" height="52" rx="9" fill="white" stroke="#000" stroke-width="0.8"/>
<text x="728.0" y="558.0" font-size="14" text-anchor="middle" fill="#000">I’ll never forget what happened here</text>
<text x="728.0" y="576.0" font-size="14" text-anchor="middle" fill="#000">tonight.</text>
<rect x="534" y="615" width="388" height="26" rx="9" fill="#cfcfcf" stroke="#000" stroke-width="0.8"/>
<text x="728.0" y="633.0" font-size="15" text-anchor="middle" fill="#000">Hypothesis</text>
<rect x="534" y="648" width="388" height="34" rx="9" fill="white" stroke="#000" stroke-width="0.8"/>
<text x="728.0" y="669.0" font-size="14" text-anchor="middle" fill="#000">It was an unforgettable experience.</text>
<rect x="534" y="708" width="388" height="30" rx="9" fill="#cfcfcf" stroke="#000" stroke-width="0.8"/>
<text x="728.0" y="728.0" font-size="15" text-anchor="middle"><tspan fill="#000">Label:&#160;</tspan><tspan fill="#000" font-weight="bold">Entailment</tspan></text>
<text x="728.0" y="766" font-size="12.5" font-style="italic" text-anchor="middle" fill="#000">The short and simple data generations</text>
<text x="728.0" y="782" font-size="12.5" font-style="italic" text-anchor="middle" fill="#000">can be trivial, such as the</text>
<text x="728.0" y="798" font-size="12.5" font-style="italic" text-anchor="middle" fill="#000">example above.</text>
<rect x="986" y="430" width="460" height="408" rx="14" fill="white" stroke="#000" stroke-width="0.8"/>
<line x1="1216.0" y1="515.0" x2="1216.0" y2="759.0" stroke="#000" stroke-width="0.8"/>
<text x="1216.0" y="456" font-size="17" font-weight="bold" text-anchor="middle" fill="#000">🤔 Data Generation:</text>
<text x="1216.0" y="477" font-size="17" font-weight="bold" text-anchor="middle" fill="#000">Long/Complex</text>
<rect x="1022" y="502" width="388" height="26" rx="9" fill="#cfcfcf" stroke="#000" stroke-width="0.8"/>
<text x="1216.0" y="520.0" font-size="15" text-anchor="middle" fill="#000">Premise</text>
<rect x="1022" y="530" width="388" height="34" rx="9" fill="white" stroke="#000" stroke-width="0.8"/>
<text x="1216.0" y="543.4" font-size="10.5" text-anchor="middle" fill="#000">Ensure the power cord is securely plugged into an electrical</text>
<text x="1216.0" y="556.4" font-size="10.5" text-anchor="middle" fill="#000">outlet before turning on the device.</text>
<rect x="1022" y="566" width="388" height="34" rx="9" fill="white" stroke="#000" stroke-width="0.8"/>
<text x="1216.0" y="579.4" font-size="10.5" text-anchor="middle" fill="#000">Do not operate the item in wet or damp conditions to prevent</text>
<text x="1216.0" y="592.4" font-size="10.5" text-anchor="middle" fill="#000">electrical hazards.</text>
<rect x="1022" y="602" width="388" height="34" rx="9" fill="white" stroke="#000" stroke-width="0.8"/>
<text x="1216.0" y="615.4" font-size="10.5" text-anchor="middle" fill="#000">Always use the recommended voltage to avoid damaging the</text>
<text x="1216.0" y="628.4" font-size="10.5" text-anchor="middle" fill="#000">equipment.</text>
<rect x="1022" y="638" width="388" height="34" rx="9" fill="white" stroke="#000" stroke-width="0.8"/>
<text x="1216.0" y="651.4" font-size="10.5" text-anchor="middle" fill="#000">If the item shows signs of damage, discontinue use</text>
<text x="1216.0" y="664.4" font-size="10.5" text-anchor="middle" fill="#000">immediately and consult customer service.</text>
<rect x="1022" y="677" width="388" height="26" rx="9" fill="#cfcfcf" stroke="#000" stroke-width="0.8"/>
<text x="1216.0" y="695.0" font-size="15" text-anchor="middle" fill="#000">Hypothesis</text>
<rect x="1022" y="705" width="388" height="34" rx="9" fill="white" stroke="#000" stroke-width="0.8"/>
<text x="1216.0" y="718.4" font-size="10.5" text-anchor="middle" fill="#000">It is acceptable to turn on the device even if the power cord is</text>
<text x="1216.0" y="731.4" font-size="10.5" text-anchor="middle" fill="#000">not securely plugged in, as long as the voltage used is appropriate.</text>
<rect x="1022" y="744" width="388" height="30" rx="9" fill="#cfcfcf" stroke="#000" stroke-width="0.8"/>
<text x="1216.0" y="764.0" font-size="15" text-anchor="middle"><tspan fill="#000">Label:&#160;</tspan><tspan fill="#000" font-weight="bold">Contradiction</tspan></text>
<text x="1216.0" y="794" font-size="12.5" font-style="italic" text-anchor="middle" fill="#000">Despite efforts to add complexity, the</text>
<text x="1216.0" y="810" font-size="12.5" font-style="italic" text-anchor="middle" fill="#000">hypothesis remains relatively simple.</text>
</svg>